<svg xmlns="http://www.w3.org/2000/svg" viewBox="0 0 45 37">
  <!-- R path -->
  <path d="M 3.168 6.143 L 1.642 6.666 L 1.053 8.171 L 1.288 9.793 L 2.562 10.745 L 4.213 10.809 L 5.869 10.809 L 7.525 10.809 L 9.181 10.809 L 10.837 10.809 L 12.493 10.809 L 14.149 10.809 L 15.805 10.809 L 17.429 11.057 L 18.467 12.272 L 18.473 13.909 L 17.433 15.118 L 15.807 15.359 L 14.151 15.359 L 12.495 15.359 L 10.839 15.359 L 9.183 15.359 L 7.527 15.359 L 5.871 15.359 L 4.215 15.359 L 2.567 15.451 L 1.365 16.491 L 1.152 18.120 L 1.152 19.776 L 1.152 21.432 L 1.152 23.088 L 1.175 24.743 L 1.936 26.151 L 3.515 26.561 L 5.104 26.184 L 5.933 24.818 L 5.962 23.163 L 5.962 21.507 L 6.165 20.054 L 7.821 20.054 L 9.477 20.054 L 11.133 20.054 L 12.789 20.054 L 14.444 20.054 L 16.100 20.054 L 17.048 21.287 L 17.882 22.717 L 18.716 24.148 L 19.554 25.576 L 20.837 26.555 L 22.448 26.365 L 23.637 25.256 L 23.782 23.661 L 23.016 22.197 L 22.187 20.763 L 21.359 19.330 L 21.685 18.080 L 22.636 16.732 L 23.169 15.169 L 23.370 13.528 L 23.303 11.875 L 22.950 10.263 L 22.203 8.793 L 21.091 7.577 L 19.647 6.781 L 18.059 6.331 L 16.415 6.164 L 14.760 6.143 L 13.104 6.143 L 11.448 6.143 L 9.792 6.143 L 8.136 6.143 L 6.480 6.143 L 4.824 6.143 L 3.168 6.143 Z" fill="#e53e3e"/>
  <!-- L path, translated by width of R (22.7) + gap (2) = 24.7 -->
  <g transform="translate(24.7,0)">
    <path d="M 5.962 8.044 L 5.762 7.029 L 5.092 6.257 L 4.113 5.925 L 3.073 5.910 L 2.083 6.210 L 1.379 6.952 L 1.158 7.962 L 1.152 9.004 L 1.152 10.047 L 1.152 11.090 L 1.152 12.132 L 1.152 13.175 L 1.152 14.218 L 1.152 15.260 L 1.152 16.303 L 1.152 17.346 L 1.152 18.388 L 1.152 19.431 L 1.152 20.474 L 1.152 21.517 L 1.152 22.559 L 1.152 23.602 L 1.212 24.641 L 1.592 25.600 L 2.436 26.184 L 3.468 26.303 L 4.510 26.303 L 5.553 26.303 L 6.596 26.303 L 7.638 26.303 L 8.681 26.303 L 9.724 26.303 L 10.766 26.303 L 11.809 26.303 L 12.852 26.303 L 13.895 26.303 L 14.937 26.303 L 15.980 26.303 L 17.023 26.303 L 18.065 26.303 L 19.108 26.303 L 20.141 26.193 L 20.995 25.624 L 21.390 24.673 L 21.438 23.635 L 21.191 22.630 L 20.483 21.888 L 19.478 21.648 L 18.435 21.638 L 17.392 21.638 L 16.350 21.638 L 15.307 21.638 L 14.264 21.638 L 13.222 21.638 L 12.179 21.638 L 11.136 21.638 L 10.094 21.638 L 9.051 21.638 L 8.008 21.638 L 6.966 21.638 L 5.962 21.599 L 5.962 20.557 L 5.962 19.514 L 5.962 18.471 L 5.962 17.428 L 5.962 16.386 L 5.962 15.343 L 5.962 14.300 L 5.962 13.258 L 5.962 12.215 L 5.962 11.172 L 5.962 10.130 L 5.962 9.087 L 5.962 8.044 Z" fill="#ffffff"/>
  </g>
</svg>